<svg version="1.1" xmlns="http://www.w3.org/2000/svg" x="0px" y="0px"
	 viewBox="0 0 88.5 67.2" xml:space="preserve" class="tutors-list-edit-svg">
<g>
	<path d="M21.5,67.1c2.4-9.3,4.4-17.6,6.7-25.9c0.3-1.2,1.5-2.1,2.5-3.1c11.5-11.5,23-23.1,34.5-34.6c4.9-4.9,7.6-4.8,12.6,0.1
		c2.7,2.7,5.5,5.4,8.1,8.1c3.4,3.6,3.5,7,0.1,10.4C73.8,34.6,61.6,46.8,49.3,59c-0.9,0.9-2.2,1.6-3.4,1.9
		C38.3,62.9,30.5,64.8,21.5,67.1z M67.8,14.5c-9.2,9.2-18.1,18-26.9,26.8c2.1,2.1,4.5,4.5,6.3,6.3c8.9-8.8,17.8-17.7,26.4-26.2
		C71.7,19.1,69.5,16.5,67.8,14.5z M30.8,44.6c-0.9,3.4-2.1,7-2.7,10.7c-0.5,2.7,3,5.8,5.7,5.2c3.5-0.8,6.9-1.8,10.3-2.7
		C39.6,53.3,35.4,49.1,30.8,44.6z"/>
	<path d="M15.1,60.8c-0.4,2.4-0.8,4.3-1.2,6.4c-4.6,0-9,0-13.9,0c0-2.1,0-4.1,0-6.4C4.9,60.8,9.8,60.8,15.1,60.8z"/>
</g>
</svg>
