<svg version="1.1"
     xmlns="http://www.w3.org/2000/svg"
     xmlns:xlink="http://www.w3.org/1999/xlink"
     class="workouts-intro-lock-dotted-arrow-svg"
     x="0px"
     y="0px"
     viewBox="-406.9 425.5 190.9 175.7">
    <style>
        .workouts-intro-lock-dotted-arrow-svg{
            width: 53px;
        }

        .workouts-intro-lock-dotted-arrow-svg circle{
            stroke: #161616;
        }
    </style>
    <circle cx="-402.8" cy="512.9" r="4.1"/>
    <circle cx="-386.1" cy="513" r="4.1"/>
    <circle cx="-386.1" cy="496.1" r="4.1"/>
    <circle cx="-386.1" cy="529.6" r="4.1"/>
    <circle cx="-369.6" cy="496.2" r="4.1"/>
    <circle cx="-369.6" cy="479.4" r="4.1"/>
    <circle cx="-369.6" cy="512.9" r="4.1"/>
    <circle cx="-369.6" cy="546.5" r="4.1"/>
    <circle cx="-369.6" cy="529.6" r="4.1"/>
    <circle cx="-352.6" cy="479.6" r="4.1"/>
    <circle cx="-352.6" cy="462.7" r="4.1"/>
    <circle cx="-352.6" cy="496.2" r="4.1"/>
    <circle cx="-352.6" cy="529.8" r="4.1"/>
    <circle cx="-352.6" cy="512.9" r="4.1"/>
    <circle cx="-352.6" cy="563.4" r="4.1"/>
    <circle cx="-352.6" cy="546.5" r="4.1"/>
    <circle cx="-336.1" cy="463.2" r="4.1"/>
    <circle cx="-336.1" cy="446.3" r="4.1"/>
    <circle cx="-336.1" cy="479.8" r="4.1"/>
    <circle cx="-336.1" cy="513.5" r="4.1"/>
    <circle cx="-336.1" cy="496.6" r="4.1"/>
    <circle cx="-336.1" cy="547" r="4.1"/>
    <circle cx="-336.1" cy="530.2" r="4.1"/>
    <circle cx="-336.1" cy="580.2" r="4.1"/>
    <circle cx="-336.1" cy="563.4" r="4.1"/>
    <circle cx="-319.1" cy="446.5" r="4.1"/>
    <circle cx="-319.1" cy="429.6" r="4.1"/>
    <circle cx="-319.1" cy="463.1" r="4.1"/>
    <circle cx="-319.1" cy="496.8" r="4.1"/>
    <circle cx="-319.1" cy="479.9" r="4.1"/>
    <circle cx="-319.1" cy="530.3" r="4.1"/>
    <circle cx="-319.1" cy="513.5" r="4.1"/>
    <circle cx="-319.1" cy="563.5" r="4.1"/>
    <circle cx="-319.1" cy="546.7" r="4.1"/>
    <circle cx="-319.1" cy="597.1" r="4.1"/>
    <circle cx="-319.1" cy="580.2" r="4.1"/>
    <circle cx="-303" cy="496.7" r="4.1"/>
    <circle cx="-303" cy="530.2" r="4.1"/>
    <circle cx="-303" cy="513.4" r="4.1"/>
    <circle cx="-286" cy="496.1" r="4.1"/>
    <circle cx="-286" cy="529.7" r="4.1"/>
    <circle cx="-286" cy="512.8" r="4.1"/>
    <circle cx="-269.5" cy="496.6" r="4.1"/>
    <circle cx="-269.5" cy="530.2" r="4.1"/>
    <circle cx="-269.5" cy="513.3" r="4.1"/>
    <circle cx="-252.7" cy="496.7" r="4.1"/>
    <circle cx="-252.7" cy="530.2" r="4.1"/>
    <circle cx="-252.7" cy="513.4" r="4.1"/>
    <circle cx="-236.1" cy="496.2" r="4.1"/>
    <circle cx="-236.1" cy="529.8" r="4.1"/>
    <circle cx="-236.1" cy="512.9" r="4.1"/>
    <circle cx="-220.1" cy="496.2" r="4.1"/>
    <circle cx="-220.1" cy="529.8" r="4.1"/>
    <circle cx="-220.1" cy="512.9" r="4.1"/>
</svg>
