<svg class="on-boarding-target-svg"
     version="1.1"
     id="Layer_1"
     xmlns="http://www.w3.org/2000/svg"
     xmlns:xlink="http://www.w3.org/1999/xlink"
     x="0px"
     y="0px"
	 viewBox="-378 104 35 35"
     style="enable-background:new -378 104 35 35;"
     xml:space="preserve">
<style type="text/css">
	.on-boarding-target-svg .st0 {
        fill: #87CA4D;
    }
</style>
<g>
	<path class="st0" d="M-361,134.6c-7.5,0-13.5-6.1-13.5-13.5s6.1-13.5,13.5-13.5c7.5,0,13.5,6.1,13.5,13.5S-353.5,134.6-361,134.6z
		 M-361,108.8c-6.8,0-12.3,5.5-12.3,12.3c0,6.8,5.5,12.3,12.3,12.3s12.3-5.5,12.3-12.3C-348.7,114.3-354.2,108.8-361,108.8z"/>
	<path class="st0" d="M-361,129c-4.4,0-7.9-3.6-7.9-7.9c0-4.4,3.6-7.9,7.9-7.9c4.4,0,7.9,3.6,7.9,7.9
		C-353.1,125.5-356.6,129-361,129z M-361,114.4c-3.7,0-6.7,3-6.7,6.7c0,3.7,3,6.7,6.7,6.7s6.7-3,6.7-6.7
		C-354.3,117.4-357.3,114.4-361,114.4z"/>
	<path class="st0" d="M-361,139c-0.6,0-1-0.4-1-1v-33c0-0.6,0.4-1,1-1s1,0.4,1,1v33C-360,138.6-360.4,139-361,139z"/>
	<path class="st0" d="M-344,122h-33c-0.6,0-1-0.4-1-1s0.4-1,1-1h33c0.6,0,1,0.4,1,1S-343.4,122-344,122z"/>
	<circle class="st0" cx="-360.9" cy="121.3" r="1.9"/>
</g>
</svg>
