<?xml version="1.0" encoding="utf-8"?>

<svg version="1.1" id="Layer_1" xmlns="http://www.w3.org/2000/svg" xmlns:xlink="http://www.w3.org/1999/xlink" x="0px" y="0px"
	 viewBox="0 0 294.6 215.3" style="enable-background:new 0 0 294.6 215.3;" xml:space="preserve">
<style type="text/css">
	.st0{fill:#FFFFFF;}
	.st1{fill:#B899C8;}
	.st2{fill:#8E6FAB;}
</style>
<g>
	<path class="st0" d="M247.3,59.3c-0.9,0-1.8,0-2.7,0.1c-7.8-19.1-26.6-32.6-48.5-32.6c-7,0-13.7,1.4-19.8,3.9
		c-9.7-17.4-28.2-29.2-49.5-29.2c-21.2,0-39.7,11.7-49.4,29c-0.6,0-1.2,0-1.8,0c-40.9,0-74.1,26.4-74.1,59
		c0,31.3,30.5,56.9,69.1,58.9c3.1,15.1,20.7,26.7,42.1,26.7c10.9,0,20.8-3,28.3-7.9c10.1,7.9,23.2,12.7,37.6,12.7
		c24.5,0,45.4-14,53.9-33.7c4.6,1.5,9.6,2.4,14.8,2.4c25.3,0,45.8-20,45.8-44.6S272.6,59.3,247.3,59.3z"/>
	<path class="st1" d="M178.6,181.3c-13.7,0-27.1-4.4-37.7-12.4c-7.9,4.9-17.9,7.6-28.2,7.6c-21.4,0-39.4-11.2-43.3-26.7
		C30.4,147.3,0,120.9,0,89.5c0-33.4,33.9-60.5,75.6-60.5c0.3,0,0.6,0,0.9,0C86.9,11.1,106.1,0,126.8,0c20.7,0,39.8,11,50.2,28.8
		c6.1-2.3,12.5-3.5,19.1-3.5c21.6,0,41,12.7,49.5,32.6c0.6,0,1.2,0,1.7,0c26.1,0,47.3,20.7,47.3,46.1S273.4,150,247.3,150
		c-4.8,0-9.4-0.7-14-2.1C224,168.3,202.7,181.3,178.6,181.3z M141.1,165.2l0.8,0.7c10.2,8,23.2,12.4,36.7,12.4
		c23.4,0,44-12.9,52.5-32.8l0.5-1.3l1.3,0.4c4.6,1.5,9.4,2.3,14.3,2.3c24.4,0,44.3-19.3,44.3-43.1s-19.9-43.1-44.3-43.1
		c-0.8,0-1.6,0-2.6,0.1l-1.1,0.1l-0.4-1c-7.9-19.2-26.4-31.7-47.1-31.7c-6.6,0-13.1,1.3-19.2,3.8l-1.2,0.5l-0.6-1.2
		C165.3,13.9,146.8,3,126.8,3c-19.9,0-38.3,10.8-48.1,28.2L78.3,32l-1.5,0c-0.4,0-0.8,0-1.1,0C35.6,31.9,3,57.7,3,89.5
		c0,30.2,29.7,55.4,67.7,57.4l1.2,0.1l0.2,1.1c2.9,14.5,20.4,25.5,40.6,25.5c10.1,0,19.9-2.7,27.5-7.7L141.1,165.2z"/>
</g>
<g>
	<circle class="st0" cx="248.2" cy="198.8" r="15"/>
	<path class="st1" d="M248.2,215.3c-9.1,0-16.5-7.4-16.5-16.5s7.4-16.5,16.5-16.5c9.1,0,16.5,7.4,16.5,16.5S257.3,215.3,248.2,215.3
		z M248.2,185.3c-7.4,0-13.5,6.1-13.5,13.5s6.1,13.5,13.5,13.5s13.5-6.1,13.5-13.5S255.7,185.3,248.2,185.3z"/>
</g>
<g>
	<path class="st2" d="M78.7,87.1V106c0,1-0.8,1.8-1.8,1.8c-1,0-1.8-0.8-1.8-1.8V92.5l-4.6,6.4c-0.4,0.5-0.9,0.7-1.4,0.7h0h0
		c-0.6,0-1.1-0.3-1.5-0.7L63,92.5V106c0,1-0.8,1.8-1.8,1.8c-1,0-1.8-0.8-1.8-1.8V87.1c0-1,0.8-1.8,1.8-1.8c0,0,0,0,0.1,0
		c0.5,0,1.1,0.3,1.4,0.7l6.4,8.8l6.4-8.8c0.4-0.5,0.9-0.7,1.4-0.7c0,0,0,0,0,0C77.9,85.4,78.7,86.2,78.7,87.1z"/>
	<path class="st2" d="M99,99.8v6.3c0,0.9-0.8,1.7-1.7,1.7c-0.8,0-1.5-0.6-1.7-1.4c-1.2,0.9-2.7,1.4-4.3,1.4c-2.2,0-4.1-0.9-5.4-2.3
		c-1.4-1.5-2.2-3.5-2.2-5.6c0-2.2,0.8-4.2,2.2-5.6c1.4-1.5,3.3-2.4,5.4-2.4c1.6,0,3,0.5,4.3,1.4c0.2-0.8,0.8-1.4,1.7-1.4
		c0.9,0,1.7,0.8,1.7,1.7V99.8z M95.6,99.8c0-1.3-0.5-2.5-1.2-3.3c-0.8-0.9-1.9-1.3-3-1.3c-1.2,0-2.2,0.4-3,1.3
		c-0.8,0.8-1.2,2-1.2,3.3c0,1.3,0.4,2.5,1.2,3.3c0.7,0.8,1.8,1.2,3,1.2c1.1,0,2.2-0.4,3-1.2C95.1,102.2,95.6,101.1,95.6,99.8z"/>
	<path class="st2" d="M111.8,93.5c0,1-0.8,1.8-1.8,1.8h-0.8v8.9c1,0,1.8,0.8,1.8,1.8c0,1-0.8,1.8-1.8,1.8c-2,0-3.6-1.6-3.6-3.6v-8.9
		h-0.9c-1,0-1.8-0.8-1.8-1.8c0-1,0.8-1.8,1.8-1.8h0.9v-4.6c0-1,0.8-1.8,1.8-1.8c1,0,1.8,0.8,1.8,1.8v4.6h0.8
		C111,91.8,111.8,92.5,111.8,93.5z"/>
	<path class="st2" d="M119.7,106c0,1-0.8,1.8-1.8,1.8c-0.8,0-1.5-0.6-1.7-1.3c0-0.1-0.1-0.3-0.1-0.4V87.1c0-1,0.8-1.8,1.8-1.8
		c1,0,1.8,0.8,1.8,1.8v5.6c1-0.5,2.2-0.9,3.4-0.9c3.9,0,7,3.2,7,7v7.2c0,1-0.8,1.8-1.8,1.8c-1,0-1.8-0.8-1.8-1.8v-7.2
		c0-1.9-1.5-3.4-3.5-3.5c-1.9,0-3.4,1.6-3.4,3.5V106z"/>
	<path class="st2" d="M144.4,106V87.1c0-1,0.8-1.8,1.8-1.8c1,0,1.8,0.8,1.8,1.8v17.1h8.7c0.9,0,1.8,0.8,1.8,1.8c0,1-0.8,1.8-1.8,1.8
		h-10.4c-0.1,0-0.1,0-0.1,0c0,0,0,0,0,0C145.2,107.8,144.4,107,144.4,106z"/>
	<path class="st2" d="M160,99.8c0-4.4,3.4-8,7.8-8c4.2,0,7.5,3.1,7.7,7.4c0,0,0,0.1,0,0.2s0,0.2,0,0.3c-0.1,0.8-0.8,1.3-1.7,1.3
		h-10.2c0.2,0.7,0.5,1.6,1.1,2.1c0.7,0.8,2,1.3,3.1,1.4c1.2,0.1,2.5-0.2,3.3-0.8c0.7-0.7,2-0.6,2.4-0.1c0.4,0.4,0.7,1.4,0,2.1
		c-1.6,1.4-3.5,2.1-5.7,2.1C163.4,107.7,160.1,104.1,160,99.8z M163.5,98.2h9.1c-0.3-1.3-2-3.2-4.7-3.4
		C165.1,94.9,163.8,96.9,163.5,98.2z"/>
	<path class="st2" d="M191.8,94.3l-5.2,12.4c0,0.1-0.1,0.2-0.1,0.2c0,0,0,0,0,0c-0.1,0.1-0.1,0.2-0.2,0.2c0,0,0,0,0,0
		c-0.1,0.1-0.1,0.1-0.2,0.2c0,0,0,0,0,0c-0.1,0.1-0.1,0.1-0.2,0.2c0,0,0,0-0.1,0c0,0,0,0,0,0c-0.1,0-0.2,0-0.3,0.1c0,0,0,0-0.1,0
		c-0.1,0-0.2,0-0.3,0c-0.1,0-0.2,0-0.3,0c0,0,0,0-0.1,0c-0.1,0-0.2-0.1-0.3-0.1c0,0,0,0,0,0c-0.1,0-0.1,0-0.1,0
		c-0.1,0-0.2-0.1-0.3-0.2c0,0,0,0,0,0c-0.1-0.1-0.1-0.1-0.2-0.2c0,0,0,0-0.1,0c0-0.1-0.1-0.2-0.2-0.2c0,0,0,0,0,0
		c-0.1,0-0.1-0.1-0.1-0.2l-5.2-12.4c-0.4-0.9,0-1.8,0.9-2.2c0.8-0.4,1.8,0.1,2.1,0.9l3.7,8.7l3.7-8.7c0.4-0.9,1.3-1.3,2.1-0.9
		C191.8,92.5,192.2,93.5,191.8,94.3z"/>
	<path class="st2" d="M195.1,99.8c0-4.4,3.4-8,7.8-8c4.2,0,7.5,3.1,7.7,7.4c0,0,0,0.1,0,0.2s0,0.2,0,0.3c-0.1,0.8-0.8,1.3-1.7,1.3
		h-10.2c0.2,0.7,0.5,1.6,1.1,2.1c0.7,0.8,2,1.3,3.1,1.4c1.2,0.1,2.5-0.2,3.3-0.8c0.7-0.7,2-0.6,2.4-0.1c0.4,0.4,0.7,1.4,0,2.1
		c-1.6,1.4-3.5,2.1-5.7,2.1C198.5,107.7,195.1,104.1,195.1,99.8z M198.6,98.2h9.1c-0.3-1.3-2-3.2-4.7-3.4
		C200.2,94.9,198.8,96.9,198.6,98.2z"/>
	<path class="st2" d="M217,85.4c1,0,1.8,0.8,1.8,1.8V106c0,1-0.8,1.8-1.8,1.8c-1,0-1.8-0.8-1.8-1.8V87.1
		C215.3,86.2,216.1,85.4,217,85.4z"/>
	<path class="st2" d="M237.1,87.1V106c0,1-0.8,1.8-1.8,1.8c-1,0-1.8-0.8-1.8-1.8V90.3l-1.3,0.7c-0.3,0.2-0.6,0.3-0.9,0.3
		c-0.6,0-1.2-0.3-1.5-0.9c-0.5-0.8-0.3-1.9,0.6-2.4l3.9-2.3c0,0,0.1,0,0.1-0.1c0.1,0,0.1-0.1,0.2-0.1c0.1,0,0.1,0,0.2,0
		c0,0,0.1,0,0.1,0c0.1,0,0.2,0,0.2,0c0,0,0.1,0,0.1,0h0c0.1,0,0.2,0,0.2,0c0,0,0.1,0,0.1,0c0.1,0,0.1,0,0.2,0.1c0,0,0.1,0,0.1,0
		c0.1,0.1,0.1,0.1,0.2,0.1c0,0,0.1,0.1,0.1,0.1c0,0,0.1,0.1,0.1,0.1c0.1,0,0.1,0.1,0.1,0.1c0,0,0.1,0.1,0.1,0.1c0,0,0.1,0.1,0.1,0.1
		l0,0.1c0,0,0,0.1,0,0.1c0,0.1,0.1,0.1,0.1,0.2c0,0.1,0,0.1,0.1,0.2c0,0.1,0,0.1,0,0.2C237,86.9,237,87,237.1,87.1
		C237.1,87.1,237.1,87.1,237.1,87.1z"/>
</g>
</svg>
