<svg class="on-boarding-heart-svg"
     version="1.1"
     id="Layer_1"
     xmlns="http://www.w3.org/2000/svg"
     xmlns:xlink="http://www.w3.org/1999/xlink"
     x="0px"
     y="0px"
	 viewBox="-377 106.7 35.9 31.3"
     style="enable-background:new -377 106.7 35.9 31.3;"
     xml:space="preserve">
    <style type="text/css">
	.on-boarding-heart-svg .st0 {
        fill: #87CA4D;
    }
    </style>

<path class="st0" d="M-359,138c-0.2,0-0.4-0.1-0.6-0.2c-0.1,0-0.1-0.1-0.2-0.1l-0.2-0.2c-4.3-4-8.8-7.9-13.2-11.6
	c-3.1-2.7-4.4-6.5-3.6-10.4c0.9-4,4-7.5,7.7-8.6c3.4-1,6.9,0,10,2.9c3.1-2.9,6.7-3.9,10.1-2.9c3.7,1.1,6.7,4.4,7.6,8.5
	c0.9,3.9-0.4,7.8-3.6,10.5c-6.5,5.5-11.4,10-13,11.5l-0.3,0.2C-358.5,137.9-358.7,138-359,138z M-366.6,108.2
	c-0.7,0-1.4,0.1-2.1,0.3c-3.2,0.9-5.8,3.9-6.6,7.4c-0.4,2-0.6,5.8,3.1,8.9c4.4,3.7,8.8,7.6,13.2,11.6l0,0c1.6-1.5,6.6-6,13-11.6
	c2.7-2.3,3.8-5.6,3.1-9c-0.8-3.5-3.4-6.4-6.5-7.3c-3.1-0.9-6.3,0.2-9.1,3c-0.1,0.1-0.3,0.2-0.5,0.2c0,0,0,0,0,0
	c-0.2,0-0.4-0.1-0.5-0.2C-361.8,109.3-364.2,108.2-366.6,108.2z"/>
</svg>
