<?xml version="1.0" encoding="utf-8"?>
<!-- Generator: Adobe Illustrator 19.0.0, SVG Export Plug-In . SVG Version: 6.00 Build 0)  -->
<svg version="1.1" id="Layer_1" xmlns="http://www.w3.org/2000/svg" xmlns:xlink="http://www.w3.org/1999/xlink" x="0px" y="0px"
	 viewBox="0 0 294.6 215.3" style="enable-background:new 0 0 294.6 215.3;" xml:space="preserve">
<style type="text/css">
	.st0{fill:#FFFFFF;}
	.st1{fill:#8E6FAB;}
</style>
<g>
	<circle class="st0" cx="20.7" cy="197.8" r="15"/>
	<path class="st1" d="M20.7,214.3c-9.1,0-16.5-7.4-16.5-16.5s7.4-16.5,16.5-16.5s16.5,7.4,16.5,16.5S29.8,214.3,20.7,214.3z
		 M20.7,184.3c-7.4,0-13.5,6.1-13.5,13.5s6.1,13.5,13.5,13.5s13.5-6.1,13.5-13.5S28.2,184.3,20.7,184.3z"/>
</g>
<path class="st1" d="M153.8,197c-19.5,0-37.8-6.9-50.5-19.1c-4.6,1.5-9.4,2.2-14.2,2.2c-25.4,0-46.1-20.5-46.6-45.8
	c-22.1-3.6-38.6-22.8-38.6-45.4c0-25.4,20.6-46,46-46c1.7,0,3.3,0.1,5,0.3C62.7,18.9,85.6,2,111.3,2c17.4,0,33.7,7.5,45,20.7
	c11.9-7.9,26.7-12.3,42-12.3c36.8,0,66.7,24.7,66.7,55c0,5.2-0.9,10.4-2.7,15.4c16.6,9.9,26.8,27.9,26.8,47.2c0,30.3-24.7,55-55,55
	c-9.7,0-19.3-2.6-27.6-7.5C193.9,189,174.3,197,153.8,197z M104.3,173.3l0.9,0.9c12,11.9,29.7,18.8,48.6,18.8
	c20.1,0,39.1-7.9,50.9-21.2l1.1-1.3l1.4,0.9c8.1,5,17.4,7.7,27,7.7c28.1,0,51-22.9,51-51c0-18.5-10-35.6-26.2-44.6l-1.5-0.9L258,81
	c2-5,3-10.3,3-15.6c0-28.1-28.1-51-62.7-51c-15.2,0-29.8,4.5-41.2,12.6l-1.5,1.1l-1.2-1.5C143.8,13.5,128.2,6,111.3,6
	C86.8,6,65,22.4,58.3,46l-0.5,1.7L56,47.4c-2-0.3-4.1-0.5-6.2-0.5c-23.1,0-42,18.8-42,42c0,21.2,15.8,39.1,36.8,41.6l1.8,0.2
	l-0.1,2.2c0,0.2,0,0.3,0,0.5c0,23.5,19.1,42.6,42.6,42.6c4.8,0,9.5-0.8,14-2.4L104.3,173.3z"/>
<g>
	<path class="st1" d="M73.9,89.4v18.9c0,1-0.8,1.8-1.8,1.8c-1,0-1.8-0.8-1.8-1.8V94.8l-4.6,6.4c-0.4,0.5-0.9,0.7-1.4,0.7h0h0
		c-0.6,0-1.1-0.3-1.5-0.7l-4.6-6.4v13.5c0,1-0.8,1.8-1.8,1.8c-1,0-1.8-0.8-1.8-1.8V89.4c0-1,0.8-1.8,1.8-1.8c0,0,0,0,0.1,0
		c0.5,0,1.1,0.3,1.4,0.7l6.4,8.8l6.4-8.8c0.4-0.5,0.9-0.7,1.4-0.7c0,0,0,0,0,0C73,87.7,73.9,88.5,73.9,89.4z"/>
	<path class="st1" d="M94.2,102.1v6.3c0,0.9-0.8,1.7-1.7,1.7c-0.8,0-1.5-0.6-1.7-1.4c-1.2,0.9-2.7,1.4-4.3,1.4
		c-2.2,0-4.1-0.9-5.4-2.3c-1.4-1.5-2.2-3.5-2.2-5.6c0-2.2,0.8-4.2,2.2-5.6c1.4-1.5,3.3-2.4,5.4-2.4c1.6,0,3,0.5,4.3,1.4
		c0.2-0.8,0.8-1.4,1.7-1.4c0.9,0,1.7,0.8,1.7,1.7V102.1z M90.8,102.1c0-1.3-0.5-2.5-1.2-3.3c-0.8-0.9-1.9-1.3-3-1.3
		c-1.2,0-2.2,0.4-3,1.3c-0.8,0.8-1.2,2-1.2,3.3c0,1.3,0.4,2.5,1.2,3.3c0.7,0.8,1.8,1.2,3,1.2c1.1,0,2.2-0.4,3-1.2
		C90.3,104.6,90.8,103.4,90.8,102.1z"/>
	<path class="st1" d="M107,95.8c0,1-0.8,1.8-1.8,1.8h-0.8v8.9c1,0,1.8,0.8,1.8,1.8c0,1-0.8,1.8-1.8,1.8c-2,0-3.6-1.6-3.6-3.6v-8.9
		h-0.9c-1,0-1.8-0.8-1.8-1.8c0-1,0.8-1.8,1.8-1.8h0.9v-4.6c0-1,0.8-1.8,1.8-1.8c1,0,1.8,0.8,1.8,1.8v4.6h0.8
		C106.2,94.1,107,94.8,107,95.8z"/>
	<path class="st1" d="M114.9,108.3c0,1-0.8,1.8-1.8,1.8c-0.8,0-1.5-0.6-1.7-1.3c0-0.1-0.1-0.3-0.1-0.4V89.4c0-1,0.8-1.8,1.8-1.8
		c1,0,1.8,0.8,1.8,1.8V95c1-0.5,2.2-0.9,3.4-0.9c3.9,0,7,3.2,7,7v7.2c0,1-0.8,1.8-1.8,1.8c-1,0-1.8-0.8-1.8-1.8v-7.2
		c0-1.9-1.5-3.4-3.5-3.5c-1.9,0-3.4,1.6-3.4,3.5V108.3z"/>
	<path class="st1" d="M139.6,108.3V89.4c0-1,0.8-1.8,1.8-1.8c1,0,1.8,0.8,1.8,1.8v17.1h8.7c0.9,0,1.8,0.8,1.8,1.8
		c0,1-0.8,1.8-1.8,1.8h-10.4c-0.1,0-0.1,0-0.1,0c0,0,0,0,0,0C140.4,110.1,139.6,109.3,139.6,108.3z"/>
	<path class="st1" d="M155.2,102.1c0-4.4,3.4-8,7.8-8c4.2,0,7.5,3.1,7.7,7.4c0,0,0,0.1,0,0.2s0,0.2,0,0.3c-0.1,0.8-0.8,1.3-1.7,1.3
		h-10.2c0.2,0.7,0.5,1.6,1.1,2.1c0.7,0.8,2,1.3,3.1,1.4c1.2,0.1,2.5-0.2,3.3-0.8c0.7-0.7,2-0.6,2.4-0.1c0.4,0.4,0.7,1.4,0,2.1
		c-1.6,1.4-3.5,2.1-5.7,2.1C158.6,110,155.2,106.4,155.2,102.1z M158.7,100.5h9.1c-0.3-1.3-2-3.2-4.7-3.4
		C160.3,97.2,158.9,99.2,158.7,100.5z"/>
	<path class="st1" d="M187,96.6l-5.2,12.4c0,0.1-0.1,0.2-0.1,0.2c0,0,0,0,0,0c-0.1,0.1-0.1,0.2-0.2,0.2c0,0,0,0,0,0
		c-0.1,0.1-0.1,0.1-0.2,0.2c0,0,0,0,0,0c-0.1,0.1-0.1,0.1-0.2,0.2c0,0,0,0-0.1,0c0,0,0,0,0,0c-0.1,0-0.2,0-0.3,0.1c0,0,0,0-0.1,0
		c-0.1,0-0.2,0-0.3,0c-0.1,0-0.2,0-0.3,0c0,0,0,0-0.1,0c-0.1,0-0.2-0.1-0.3-0.1c0,0,0,0,0,0c-0.1,0-0.1,0-0.1,0
		c-0.1,0-0.2-0.1-0.3-0.2c0,0,0,0,0,0c-0.1-0.1-0.1-0.1-0.2-0.2c0,0,0,0-0.1,0c0-0.1-0.1-0.2-0.2-0.2c0,0,0,0,0,0
		c-0.1,0-0.1-0.1-0.1-0.2l-5.2-12.4c-0.4-0.9,0-1.8,0.9-2.2c0.8-0.4,1.8,0.1,2.1,0.9l3.7,8.7l3.7-8.7c0.4-0.9,1.3-1.3,2.1-0.9
		C187,94.8,187.4,95.8,187,96.6z"/>
	<path class="st1" d="M190.3,102.1c0-4.4,3.4-8,7.8-8c4.2,0,7.5,3.1,7.7,7.4c0,0,0,0.1,0,0.2s0,0.2,0,0.3c-0.1,0.8-0.8,1.3-1.7,1.3
		h-10.2c0.2,0.7,0.5,1.6,1.1,2.1c0.7,0.8,2,1.3,3.1,1.4c1.2,0.1,2.5-0.2,3.3-0.8c0.7-0.7,2-0.6,2.4-0.1c0.4,0.4,0.7,1.4,0,2.1
		c-1.6,1.4-3.5,2.1-5.7,2.1C193.7,110,190.3,106.4,190.3,102.1z M193.7,100.5h9.1c-0.3-1.3-2-3.2-4.7-3.4
		C195.3,97.2,194,99.2,193.7,100.5z"/>
	<path class="st1" d="M212.2,87.7c1,0,1.8,0.8,1.8,1.8v18.9c0,1-0.8,1.8-1.8,1.8c-1,0-1.8-0.8-1.8-1.8V89.4
		C210.5,88.5,211.3,87.7,212.2,87.7z"/>
	<path class="st1" d="M240.1,108.3c0,1-0.8,1.8-1.8,1.8H227c0,0,0,0,0,0h0c-0.5,0-1-0.2-1.3-0.6c-0.7-0.7-0.6-1.8,0.1-2.5l9.5-8.6
		c0.9-0.8,1.3-1.9,1.3-3.1c0-1-0.4-2-1.1-2.8c-0.8-0.9-2-1.3-3.1-1.3c-1,0-2,0.4-2.8,1.1l-1,0.9c-0.7,0.7-1.8,0.6-2.5-0.1
		c-0.6-0.7-0.6-1.8,0.1-2.5l1-0.9c1.4-1.3,3.3-2,5.2-2c2.1,0,4.2,0.9,5.7,2.5c1.3,1.4,2,3.3,2,5.2c0,2.1-0.9,4.2-2.5,5.7l-6,5.5h6.8
		C239.3,106.5,240.1,107.3,240.1,108.3z"/>
</g>
</svg>
