<svg class="goals-top-icon-wrapper" x="0px" y="0px" viewBox="-632.7 361.9 200 200">
    <style type="text/css">
        .goals-top-icon-wrapper .st0{fill:none;}
    </style>
<path class="st0"/>
<g>
	<path d="M-632.7,473.9c7.1,0.1,14.2,0.4,21.4,0.4c3,0,4.1,0.9,4.9,4c7.8,30.3,26.9,49.5,57.3,57.3c3.2,0.8,4,2,3.9,4.9
		c-0.3,7.1-0.3,14.3-0.4,21.4c-1.3,0-5.4-0.8-6.2-1c-36.3-7.9-61.4-29.2-75.2-63.6C-629.5,491.3-632.7,475.5-632.7,473.9z"/>
	<path d="M-519.7,561.9c-0.1-7.6-0.4-15.2-0.3-22.9c0-1.1,1.7-2.7,2.8-3c31.2-7.9,50.7-27.4,58.6-58.6c0.3-1.3,2.6-2.8,4-2.9
		c7.3-0.4,14.6-0.4,21.9-0.6c0,1.7-0.8,6.4-1,7.2c-8,36.5-29.4,61.7-64.1,75.4C-503.6,558.7-518.3,561.9-519.7,561.9z"/>
	<path d="M-545.7,361.9c0.1,7.5,0.4,15,0.3,22.4c0,1.2-1.7,3.1-2.9,3.4c-31.1,7.9-50.5,27.3-58.4,58.5c-0.3,1.2-1.9,2.9-3,2.9
		c-7.6,0.1-15.3-0.1-22.9-0.3c0-1.3,0.8-5.4,1-6.2c7.7-35.8,28.5-60.7,62.2-74.7C-563.1,365.4-547,361.9-545.7,361.9z"/>
	<path d="M-432.7,448.9c-7.6,0.1-15.3,0.4-22.9,0.2c-1.1,0-2.8-2.3-3.2-3.8c-7.3-27.7-24.3-46.4-51.5-55.6
		c-9.8-3.3-9.9-3.1-9.8-13.4c0-4.8,0.3-9.6,0.4-14.4c1.3,0,5.4,0.8,6.2,1c36.6,7.9,61.7,29.4,75.4,64.1
		C-435.8,432.7-432.7,447.5-432.7,448.9z"/>
	<path d="M-581.2,474.6c12,0,23.6,0,35.5,0c0,12,0,23.7,0,35.4C-560.5,508.7-577.8,491.6-581.2,474.6z"/>
	<path d="M-519.8,474.6c12,0,23.7,0,35.4,0c-2.3,16-19.5,33.2-35.4,35.5C-519.8,498.4-519.8,486.7-519.8,474.6z"/>
	<path d="M-545.9,448.9c-11.9,0-23.5,0-35.7,0c5.6-18.4,17.2-30,35.7-35.9C-545.9,425.2-545.9,436.9-545.9,448.9z"/>
	<path d="M-519.8,413.5c16.2,2.7,32.7,19.2,35.5,35.4c-11.8,0-23.5,0-35.5,0C-519.8,437.1-519.8,425.5-519.8,413.5z"/>
</g>
</svg>
