<?xml version="1.0" encoding="utf-8"?>
<svg version="1.1" id="Layer_1" xmlns="http://www.w3.org/2000/svg" xmlns:xlink="http://www.w3.org/1999/xlink" x="0px" y="0px"
	 viewBox="-1010.6 704.8 137.2 137.5" style="enable-background:new -1010.6 704.8 137.2 137.5;" xml:space="preserve">
<path class="st0" d="M-412,214.5"/>
<g>
	<path class="st1" d="M-879.4,842.3c-1.5,0-3.1-0.6-4.2-1.8l-125.2-125.3c-2.3-2.3-2.3-6.1,0-8.5c2.3-2.3,6.1-2.3,8.5,0l125.2,125.3
		c2.3,2.3,2.3,6.1,0,8.5C-876.3,841.7-877.9,842.3-879.4,842.3z"/>
	<path class="st1" d="M-1004.6,842c-1.5,0-3.1-0.6-4.2-1.8c-2.3-2.3-2.3-6.1,0-8.5l125.2-125.2c2.3-2.3,6.1-2.3,8.5,0
		c2.3,2.3,2.3,6.1,0,8.5l-125.2,125.2C-1001.5,841.4-1003.1,842-1004.6,842z"/>
</g>
</svg>
