<svg
    class="subject-locked-svg"
    x="0px"
    y="0px"
    viewBox="0 0 127.4 180">

    <style type="text/css">
        .subject-locked-svg {
            width: 100%;
            height: auto;
        }
    </style>
<g>
	<g>
		<path class="st0" d="M57.4,0c4,0,8,0,12,0c1.3,0.4,2.5,0.8,3.8,1.1c20,4.5,34.7,15.3,40.5,35.6c2.1,7.5,2.1,15.8,2.4,23.7
			c0.4,9.1,0.1,18.2,0.1,27.3c4.1,0.5,7.7,1,11.2,1.4c0,30.3,0,60.7,0,91C85,180,42.6,180,0,180c0-30.9,0-61.1,0-91.6
			c3.7-0.2,7.1-0.4,10.7-0.6c0-12.2-0.2-23.8,0-35.5c0.4-21.6,10-37.7,29.7-46.9C45.8,2.9,51.8,1.8,57.4,0z M98.5,87.9
			c0-11.5,0-22.5,0-33.4c0-20.3-9.9-32.2-30-36.1C52,15.2,32.1,26.9,29.8,43c-2,14.7-1.4,29.8-1.9,44.9
			C51.9,87.9,74.9,87.9,98.5,87.9z M71.3,149.8c-0.6-4.1-1.2-7.7-1.6-11.4c-0.5-4-1.3-7.7,2.1-11.5c3.2-3.6,1.7-9.3-2.1-12.4
			c-3.5-2.9-8.9-2.9-12.4,0c-3.8,3.1-5.4,8.9-2.2,12.4c3.5,3.9,2.5,7.8,2,12c-0.4,3.6-1,7.1-1.5,10.9
			C60.9,149.8,65.9,149.8,71.3,149.8z"/>
	</g>
</g>
</svg>
