<svg version="1.1" id="Layer_1"
     xmlns="http://www.w3.org/2000/svg"
     x="0px" y="0px"
	 viewBox="0 0 172 188"
     style="enable-background:new 0 0 172 188;"
     class="reschedule-icon"
     xml:space="preserve">
    <style type="text/css">
    svg.reschedule-icon{
        width:12px;
    	.st0{fill:none;stroke:#000000;stroke-width:7;stroke-linecap:round;stroke-linejoin:round;stroke-miterlimit:10;}
    }
</style>
<path id="XMLID_65_" d="M12,63.7c49.6,0,98.6,0,147.9,0c0-9,0.3-17.8-0.1-26.6c-0.2-5.4-4.5-8.8-10.1-9.2c-2.8-0.2-6,0.7-8.4-0.3
	c-2.2-0.9-4.7-3.5-5-5.6c-0.2-1.8,2.4-5.5,4-5.7c6.7-0.7,13.7-1.5,20,2.1c7.3,4.2,11.6,10.5,11.6,19.1c0.1,42.8,0.1,85.6,0,128.5
	c0,12.3-9.6,21.8-21.9,21.8c-42.7,0.1-85.3,0.1-128,0c-12.5,0-22-9.6-22-22.2c0-42.5,0-85,0-127.5c0-12.6,9.5-22.1,22-22.2
	c2.5,0,5,0,7.5,0c4,0.1,6.4,2.1,6.4,6.1c-0.1,4-2.6,5.9-6.6,5.9c-2.5,0-5-0.1-7.5,0.1c-5.6,0.5-9.5,4-9.7,9.5
	C11.8,46.2,12,54.8,12,63.7z M12,76.2c0,29.4,0,58.2,0,87c0,9.4,3.5,12.8,13.1,12.8c40.7,0,81.3,0,122,0c9.5,0,13-3.5,13-13
	c0-27.3,0-54.6,0-82c0-1.6-0.1-3.2-0.2-4.9C110.4,76.2,61.5,76.2,12,76.2z"/>
<path id="XMLID_58_" d="M86,27.9c-7.7,0-15.3,0-23,0c-4.7,0-7.6-2.5-7.3-6.2c0.4-4.3,3.1-5.8,7.2-5.8C78.3,16,93.6,16,109,16
	c4.1,0,6.9,1.7,6.9,6c0,4.3-2.8,6-6.9,6C101.3,27.9,93.7,27.9,86,27.9z"/>
<path id="XMLID_4_" d="M46.7,58.8C38,58.8,31,51.8,31,43.1S38,27.3,46.7,27.3s15.8,7.1,15.8,15.8S55.4,58.8,46.7,58.8z M46.7,34.3
	c-4.8,0-8.8,3.9-8.8,8.8s3.9,8.8,8.8,8.8s8.8-3.9,8.8-8.8S51.6,34.3,46.7,34.3z"/>
<path id="XMLID_5_" d="M46.7,34.3c-1.9,0-3.5-1.6-3.5-3.5V4.4c0-1.9,1.6-3.5,3.5-3.5s3.5,1.6,3.5,3.5v26.4
	C50.2,32.8,48.7,34.3,46.7,34.3z"/>
<path id="XMLID_6_" d="M127.2,57.9c-8.7,0-15.8-7.1-15.8-15.8s7.1-15.8,15.8-15.8s15.7,7.1,15.7,15.8S135.8,57.9,127.2,57.9z
	 M127.2,33.4c-4.8,0-8.8,3.9-8.8,8.8s3.9,8.8,8.8,8.8c4.8,0,8.7-3.9,8.7-8.8S132,33.4,127.2,33.4z"/>
<path id="XMLID_7_" d="M127.2,33.4c-1.9,0-3.5-1.6-3.5-3.5V3.5c0-1.9,1.6-3.5,3.5-3.5c1.9,0,3.5,1.6,3.5,3.5v26.4
	C130.7,31.8,129.1,33.4,127.2,33.4z"/>
<path id="XMLID_26_" d="M56.4,130.4c-1.9,0-3.5-1.5-3.5-3.4c0-1.5,0.1-3,0.2-4.6c2.2-18.5,19-31.7,37.5-29.5
	c13.3,1.6,24.4,10.9,28.3,23.7c0.6,1.8-0.5,3.8-2.3,4.4c-1.8,0.6-3.8-0.5-4.4-2.3c-3.1-10.2-11.9-17.5-22.5-18.8
	c-14.7-1.7-28,8.8-29.7,23.4c-0.1,1.2-0.2,2.4-0.2,3.6C59.9,128.7,58.4,130.3,56.4,130.4C56.4,130.4,56.4,130.4,56.4,130.4z"/>
<polygon id="XMLID_13_" points="122.2,106.1 118.8,121.6 118.7,122.9 102.7,115.2 "/>
<path id="XMLID_27_" d="M89.1,163c-13.6,0-25.8-8.1-31.1-20.6c-0.8-1.8,0.1-3.8,1.9-4.6c1.8-0.8,3.8,0.1,4.6,1.9
	c4.2,9.9,13.9,16.3,24.7,16.3c13.9,0,25.3-10.4,26.6-24.2c0.2-1.9,1.9-3.3,3.8-3.2c1.9,0.2,3.3,1.9,3.2,3.8
	C121,149.8,106.6,163,89.1,163z"/>
<polygon id="XMLID_3_" points="54.6,150.1 55.4,134.9 55.4,133.5 72.2,139.3 "/>
</svg>
