<?xml version="1.0" encoding="utf-8"?>
<!-- Generator: Adobe Illustrator 19.0.0, SVG Export Plug-In . SVG Version: 6.00 Build 0)  -->
<svg version="1.1" id="TOEFL" xmlns="http://www.w3.org/2000/svg" xmlns:xlink="http://www.w3.org/1999/xlink" x="0px" y="0px"
	 viewBox="-169 364 273 65" style="enable-background:new -169 364 273 65;" xml:space="preserve">
<style type="text/css">
	.st0{enable-background:new    ;}
	.st1{fill:#FF931E;}
	.st2{fill:#A1A1A1;}
	.st3{fill:none;enable-background:new    ;}
	.st4{fill:#000001;}
</style>
<g class="st0">
	<path class="st1" d="M-41.1,376.6v27.2h-5.6v-27.2h-10v-5h25.7v5H-41.1z"/>
	<path class="st1" d="M1.8,399.4c-3.3,3.2-7.5,4.8-12.4,4.8c-4.9,0-9.1-1.6-12.4-4.8c-3.3-3.2-5-7.1-5-11.9s1.7-8.7,5-11.9
		c3.3-3.2,7.5-4.8,12.4-4.8c4.9,0,9.1,1.6,12.4,4.8c3.3,3.2,5,7.1,5,11.9S5.1,396.2,1.8,399.4z M-2.3,379.3c-2.3-2.3-5-3.4-8.3-3.4
		c-3.3,0-6.1,1.1-8.3,3.4c-2.3,2.3-3.4,5-3.4,8.3c0,3.2,1.1,6,3.4,8.3c2.3,2.3,5,3.4,8.3,3.4c3.3,0,6.1-1.1,8.3-3.4
		c2.3-2.3,3.4-5,3.4-8.3C1.1,384.3,0,381.5-2.3,379.3z"/>
	<path class="st1" d="M37.1,371.7v5.1H19.5v8.5h15.9v4.8H19.5v8.6h18.2v5.1H13.9v-32.2H37.1z"/>
	<path class="st1" d="M50.4,376.7v8.8h14.7v5H50.4v13.3h-5.6v-32.2h22.1l0,5.1H50.4z"/>
	<path class="st1" d="M73.5,403.9v-32.2h5.6v27h15.1v5.2H73.5z"/>
</g>
<path class="st1" d="M97.4,365c3.4-0.2,6.4,2.4,6.6,5.9s-2.4,6.4-5.9,6.6c-0.2,0-0.5,0-0.7,0c-3.4,0.2-6.4-2.4-6.7-5.8
	c-0.2-3.4,2.4-6.4,5.8-6.7C96.8,365,97.1,365,97.4,365L97.4,365z M97.3,366.3c-2.7,0-4.9,2.3-4.9,5c0,2.7,2.3,4.9,5,4.9
	c2.7,0,4.9-2.1,4.9-4.8c0-0.1,0-0.1,0-0.2c0-2.7-2.1-5-4.8-5C97.4,366.3,97.4,366.3,97.3,366.3L97.3,366.3L97.3,366.3z M96.3,374.4
	h-1.5v-6.2c0.8-0.1,1.7-0.2,2.5-0.2c0.8-0.1,1.5,0.1,2.2,0.5c0.4,0.3,0.7,0.8,0.7,1.3c-0.1,0.7-0.6,1.3-1.3,1.5v0.1
	c0.6,0.2,1.1,0.8,1.1,1.5c0.1,0.5,0.2,1,0.5,1.5h-1.6c-0.3-0.5-0.4-1-0.5-1.5c-0.1-0.6-0.7-1-1.3-1c0,0,0,0-0.1,0h-0.7L96.3,374.4
	L96.3,374.4z M96.4,371h0.7c0.8,0,1.5-0.3,1.5-0.9c0-0.6-0.4-0.9-1.4-0.9c-0.3,0-0.6,0-0.8,0.1L96.4,371L96.4,371z"/>
<g class="st0">
	<path class="st2" d="M-16,416v1.5h-4.2V429H-22v-11.5h-4.2V416H-16z"/>
	<path class="st2" d="M-6.2,416v1.4h-6.2v4.3h5v1.4h-5v4.4h6.2v1.4h-8v-13H-6.2z"/>
	<path class="st2" d="M3,418.1c-0.1,0.1-0.1,0.2-0.2,0.2c-0.1,0-0.1,0.1-0.2,0.1c-0.1,0-0.2-0.1-0.4-0.2s-0.3-0.2-0.5-0.3
		c-0.2-0.1-0.5-0.2-0.8-0.3s-0.6-0.2-1.1-0.2c-0.4,0-0.7,0.1-1,0.2c-0.3,0.1-0.6,0.2-0.8,0.4c-0.2,0.2-0.4,0.4-0.5,0.6
		c-0.1,0.2-0.2,0.5-0.2,0.8c0,0.4,0.1,0.7,0.3,0.9c0.2,0.2,0.4,0.4,0.7,0.6c0.3,0.2,0.6,0.3,1,0.4c0.4,0.1,0.8,0.3,1.1,0.4
		c0.4,0.1,0.8,0.3,1.1,0.4c0.4,0.2,0.7,0.4,1,0.6c0.3,0.3,0.5,0.6,0.7,0.9c0.2,0.4,0.3,0.8,0.3,1.4c0,0.6-0.1,1.1-0.3,1.6
		c-0.2,0.5-0.5,0.9-0.8,1.3c-0.4,0.4-0.8,0.7-1.4,0.9s-1.2,0.3-1.8,0.3c-0.8,0-1.6-0.2-2.3-0.5c-0.7-0.3-1.3-0.7-1.8-1.2l0.5-0.8
		c0-0.1,0.1-0.1,0.2-0.2c0.1,0,0.1-0.1,0.2-0.1c0.1,0,0.3,0.1,0.4,0.2s0.4,0.3,0.6,0.4s0.5,0.3,0.9,0.4c0.3,0.1,0.8,0.2,1.3,0.2
		c0.4,0,0.8-0.1,1.1-0.2s0.6-0.3,0.8-0.5c0.2-0.2,0.4-0.5,0.5-0.7c0.1-0.3,0.2-0.6,0.2-1c0-0.4-0.1-0.7-0.3-1s-0.4-0.5-0.7-0.6
		c-0.3-0.2-0.6-0.3-1-0.4c-0.4-0.1-0.8-0.2-1.1-0.4c-0.4-0.1-0.8-0.3-1.1-0.4s-0.7-0.4-1-0.6c-0.3-0.3-0.5-0.6-0.7-1
		s-0.3-0.9-0.3-1.4c0-0.5,0.1-0.9,0.3-1.3s0.4-0.8,0.8-1.1s0.8-0.6,1.3-0.8s1.1-0.3,1.7-0.3c0.7,0,1.4,0.1,2,0.3
		c0.6,0.2,1.1,0.6,1.6,1L3,418.1z"/>
	<path class="st2" d="M14.8,416v1.5h-4.2V429H8.8v-11.5H4.6V416H14.8z"/>
	<path class="st2" d="M22,424.2v4.8h-1.7v-13h3.8c0.8,0,1.5,0.1,2.1,0.3c0.6,0.2,1.1,0.5,1.5,0.8s0.7,0.8,0.9,1.3s0.3,1,0.3,1.7
		c0,0.6-0.1,1.2-0.3,1.7c-0.2,0.5-0.5,0.9-0.9,1.3c-0.4,0.4-0.9,0.6-1.5,0.8s-1.3,0.3-2.1,0.3H22z M22,422.8h2.1
		c0.5,0,0.9-0.1,1.3-0.2c0.4-0.1,0.7-0.3,1-0.6c0.3-0.2,0.5-0.5,0.6-0.9c0.1-0.3,0.2-0.7,0.2-1.1c0-0.8-0.3-1.5-0.8-1.9
		c-0.5-0.5-1.3-0.7-2.3-0.7H22V422.8z"/>
	<path class="st2" d="M33.1,423.6v5.4h-1.7v-13H35c0.8,0,1.5,0.1,2.1,0.2c0.6,0.2,1.1,0.4,1.5,0.7c0.4,0.3,0.7,0.7,0.9,1.1
		s0.3,0.9,0.3,1.5c0,0.5-0.1,0.9-0.2,1.3c-0.1,0.4-0.4,0.8-0.6,1.1s-0.6,0.6-1,0.8c-0.4,0.2-0.8,0.4-1.3,0.5
		c0.2,0.1,0.4,0.3,0.6,0.6l3.8,5.1h-1.6c-0.3,0-0.6-0.1-0.7-0.4l-3.4-4.6c-0.1-0.1-0.2-0.2-0.3-0.3c-0.1-0.1-0.3-0.1-0.5-0.1H33.1z
		 M33.1,422.3h1.8c0.5,0,1-0.1,1.4-0.2c0.4-0.1,0.7-0.3,1-0.5c0.3-0.2,0.5-0.5,0.6-0.8s0.2-0.7,0.2-1c0-0.8-0.3-1.4-0.8-1.7
		c-0.5-0.4-1.3-0.6-2.3-0.6h-1.9V422.3z"/>
	<path class="st2" d="M50.8,416v1.4h-6.2v4.3h5v1.4h-5v4.4h6.2v1.4h-8v-13H50.8z"/>
	<path class="st2" d="M55.2,424.2v4.8h-1.7v-13h3.8c0.8,0,1.5,0.1,2.1,0.3c0.6,0.2,1.1,0.5,1.5,0.8s0.7,0.8,0.9,1.3s0.3,1,0.3,1.7
		c0,0.6-0.1,1.2-0.3,1.7c-0.2,0.5-0.5,0.9-0.9,1.3c-0.4,0.4-0.9,0.6-1.5,0.8s-1.3,0.3-2.1,0.3H55.2z M55.2,422.8h2.1
		c0.5,0,0.9-0.1,1.3-0.2c0.4-0.1,0.7-0.3,1-0.6c0.3-0.2,0.5-0.5,0.6-0.9c0.1-0.3,0.2-0.7,0.2-1.1c0-0.8-0.3-1.5-0.8-1.9
		c-0.5-0.5-1.3-0.7-2.3-0.7h-2.1V422.8z"/>
</g>
<path class="st3" d="z"/>
<circle id="XMLID_137_" class="st4" cx="-97.6" cy="403" r="5.7"/>
<path id="XMLID_136_" class="st4" d="M-121,429c4.2,0,7.7-3.4,7.7-7.7c0-4.2-3.4-7.7-7.7-7.7c-4.2,0-7.7,3.4-7.7,7.7
	C-128.7,425.6-125.2,429-121,429z"/>
<path id="XMLID_135_" class="st4" d="M-98.7,392.5c-6.5-4-14.2-6.3-22.3-6.3c-8.1,0-15.8,2.3-22.3,6.3c5.4,0.5,9.6,5.1,9.6,10.6
	c0,0.7-0.1,1.4-0.2,2.1c3.9-2.1,8.3-3.3,13-3.3c4.7,0,9.1,1.2,13,3.3c-0.1-0.7-0.2-1.4-0.2-2.1C-108.3,397.5-104.1,393-98.7,392.5z"
	/>
<path id="XMLID_134_" class="st4" d="M-155,403.2c-3.3,4.5-5.8,9.7-7.2,15.4c-0.5,2-0.2,4.1,0.9,5.9c1.1,1.8,2.8,3,4.8,3.5
	c0.6,0.1,1.2,0.2,1.8,0.2c3.6,0,6.8-2.5,7.6-6c0.8-3.2,2.1-6.1,3.8-8.6c-0.4,0-0.8,0.1-1.2,0.1C-150.2,413.7-154.9,409-155,403.2z"
	/>
<path id="XMLID_132_" class="st4" d="M-74,402.8c0.2-2.8,2.7-32.3-1.9-36.6c-3.9-3.7-24.9,6.6-32,10.3
	C-93.4,380.2-81.1,389.7-74,402.8z"/>
<circle id="XMLID_131_" class="st4" cx="-144.4" cy="403" r="5.7"/>
<path id="XMLID_130_" class="st4" d="M-97.6,413.7c-0.4,0-0.8,0-1.3-0.1c1.7,2.6,3.1,5.5,3.8,8.7c0.8,3.5,4,6,7.6,6
	c0.6,0,1.2-0.1,1.8-0.2c4.2-1,6.8-5.2,5.8-9.4c-1.4-5.7-3.9-10.9-7.2-15.4C-87.1,409-91.8,413.7-97.6,413.7z"/>
<path id="XMLID_129_" class="st4" d="M-134.1,376.6c-7.1-3.7-28.1-14.1-32-10.3c-4.5,4.3-2.1,33.7-1.9,36.6
	C-160.9,389.7-148.6,380.2-134.1,376.6z"/>
</svg>
