<svg version="1.1" class="science-icon-svg" id="Layer_1" xmlns="http://www.w3.org/2000/svg" x="0px" y="0px"
	 viewBox="-350 80.2 90 83.8" style="enable-background:new -350 80.2 90 83.8;" xml:space="preserve">

    <style type="text/css">
        .science-icon-svg {
            width: 100%;
            height: auto;
        }
    </style>

<g>
	<path d="M-306.8,158.6H-324c-1,0-2-0.5-2.5-1.4c-0.5-0.8-0.6-1.9-0.2-2.8l14.1-33.3c0-0.1,0-0.1,0-0.2v-7.3c0-1.7,1.3-3,3-3h3
		c0.7,0,1.3,0.6,1.3,1.3s-0.6,1.3-1.3,1.3h-3c-0.1,0-0.4,0.1-0.4,0.4v7.3c0,0.2,0,0.6-0.2,1.1v0.1l-14.1,33.4
		c-0.1,0.1-0.1,0.2,0,0.3c0,0.1,0.1,0.1,0.3,0.1h17.2c0.7,0,1.3,0.6,1.3,1.3S-306.1,158.6-306.8,158.6z"/>
	<path d="M-286,158.6h-20.7c-0.7,0-1.3-0.6-1.3-1.3s0.6-1.3,1.3-1.3h20.7c0.2,0,0.2-0.1,0.3-0.1c0.1-0.1,0.1-0.2,0-0.3l-14.1-33.4
		v-0.1c-0.2-0.5-0.2-0.9-0.2-1.1v-7.3c0-0.3-0.2-0.4-0.4-0.4h-3c-0.7,0-1.3-0.6-1.3-1.3s0.6-1.3,1.3-1.3h3c1.7,0,3,1.3,3,3v7.3
		c0,0.1,0,0.2,0,0.2l14.1,33.3c0.4,0.9,0.3,2-0.2,2.8C-284,158-285,158.6-286,158.6z"/>
	<path d="M-296,113.3h-17.8c-1.1,0-2-0.9-2-2s0.9-2,2-2h17.8c1.1,0,2,0.9,2,2S-294.9,113.3-296,113.3z"/>
	<path d="M-318.8,142.1c0,0,10.1,2.4,15,1.1c4.9-1.3,8.9-4.6,12.9-3.3l6.4,15.7l-0.5,1.1h-40.1v-4.5l5.1-10.4L-318.8,142.1z"/>
	<path d="M-298.4,98c-3.4,0-6.2-2.8-6.2-6.2s2.8-6.2,6.2-6.2s6.2,2.8,6.2,6.2S-295,98-298.4,98z M-298.4,87.8c-2.2,0-4,1.8-4,4
		s1.8,4,4,4s4-1.8,4-4S-296.2,87.8-298.4,87.8z"/>
	<path d="M-308.2,104.7c-2.5,0-4.5-2-4.5-4.5s2-4.5,4.5-4.5s4.5,2,4.5,4.5S-305.7,104.7-308.2,104.7z M-308.2,97.9
		c-1.3,0-2.3,1-2.3,2.3s1,2.3,2.3,2.3s2.3-1,2.3-2.3C-305.9,98.9-306.9,97.9-308.2,97.9z"/>
	<path d="M-311.6,92.7c-1.4,0-2.6-1.2-2.6-2.6s1.2-2.6,2.6-2.6s2.6,1.2,2.6,2.6S-310.2,92.7-311.6,92.7z M-311.6,88.7
		c-0.8,0-1.4,0.6-1.4,1.4s0.6,1.4,1.4,1.4s1.4-0.6,1.4-1.4S-310.8,88.7-311.6,88.7z"/>
</g>
</svg>
