<svg version="1.1" xmlns="http://www.w3.org/2000/svg"
    class="error-icon"
    x="0px"
    y="0px"
    viewBox="0 0 54.8 49.1">
<path class="st0" d="M54,39.8L32.8,3.1C30.4-1,24.4-1,22,3.1L0.8,39.8c-2.4,4.1,0.6,9.3,5.4,9.3h42.4C53.4,49.1,56.4,44,54,39.8z
	 M29.8,42.9c-0.7,0.6-1.5,0.9-2.4,0.9c-0.9,0-1.7-0.3-2.4-0.9s-1-1.4-1-2.5c0-0.9,0.3-1.7,1-2.4s1.5-1,2.4-1s1.8,0.3,2.4,1
	c0.7,0.7,1,1.5,1,2.4C30.8,41.4,30.5,42.2,29.8,42.9z M30.7,17.7l-1,11.2c-0.1,1.3-0.3,2.4-0.7,3.1c-0.3,0.7-0.9,1.1-1.7,1.1
	c-0.8,0-1.4-0.3-1.7-1c-0.3-0.7-0.5-1.7-0.7-3.1l-0.7-10.9C24,15.8,24,14.3,24,13.4c0-1.3,0.3-2.2,1-2.9s1.5-1.1,2.6-1.1
	c1.3,0,2.2,0.5,2.6,1.4c0.4,0.9,0.7,2.2,0.7,3.9C30.8,15.6,30.8,16.6,30.7,17.7z"/>
</svg>
