<svg version="1.1"
     xmlns="http://www.w3.org/2000/svg"
     xmlns:xlink="http://www.w3.org/1999/xlink"
     x="0px"
     y="0px"
     viewBox="0 0 51.7 54.3"
     class="answer-explanation-lamp-icon-svg">
    <style>
        svg.answer-explanation-lamp-icon-svg{
            width: 18px;
        }

        svg.answer-explanation-lamp-icon-svg path{
            stroke: white;
            fill: white;
        }

        svg.answer-explanation-lamp-icon-svg path.st0{
            fill: transparent;
        }
    </style>

    <g>
        <path class="st0" d="M19.6,44.7c-0.9-0.1-2.1-0.1-2.1-1.3c0.1-4.5-2.5-8.1-3.9-12.1c-2.5-6.8,0.5-14.5,6.7-17.4
		c5-2.3,9.7-1.7,13.8,1.9c4.5,3.9,5.8,9.1,4.1,14.7c-0.9,3-2.4,5.9-3.4,8.8c-0.4,1-0.5,2.2-0.5,3.3c0,1.5-0.7,2.2-2.2,2.2
		C27.7,44.7,24.1,44.7,19.6,44.7z"/>
        <path class="st1" d="M44.5,44.9c-0.4,1.3-1.4,1.2-2.1,0.5c-1.5-1.4-2.9-2.9-4.3-4.3c-0.4-0.4-0.6-0.9-0.2-1.5
		c0.4-0.5,0.9-0.8,1.4-0.4c1.8,1.6,3.6,3.2,5,5.1C44.5,44.4,44.5,44.7,44.5,44.9z"/>
        <path class="st2" d="M8,7.8c1,0,5.9,4.7,5.9,5.5c0,0.5-0.3,0.8-0.7,1.1c-0.5,0.4-0.9,0.1-1.2-0.2c-1.5-1.5-3.1-3-4.6-4.5
		C7.1,9.3,7,8.8,7.3,8.2C7.5,8,7.9,7.9,8,7.8z"/>
        <path class="st3"
              d="M43.6,8c1.1,0.1,1.3,1.1,0.7,1.7c-1.4,1.7-3,3.3-4.7,4.7c-0.8,0.7-1.6,0.3-1.9-0.7C37.5,13,42.5,8,43.6,8z"/>
        <path class="st4" d="M12.7,38.9c0.5,0,0.9,0.2,1.1,0.7c0.3,0.5,0,0.9-0.3,1.2c-1.5,1.5-3,3-4.5,4.5c-0.4,0.4-0.8,0.4-1.3,0.2
		c-0.5-0.2-0.6-0.7-0.6-1.1C7.2,43.6,11.9,38.9,12.7,38.9z"/>
        <path class="st5" d="M4.5,27.2c-1,0-2.1,0-3.1,0c-0.7,0-1.4-0.1-1.4-1c0-1,0.6-1.3,1.4-1.3c2,0,3.9,0,5.9,0c0.8,0,1.2,0.5,1.3,1.2
		c0,0.8-0.5,1.1-1.3,1.1C6.4,27.2,5.4,27.2,4.5,27.2z"/>
        <path class="st6" d="M47.1,27.2c-0.8,0-1.7,0-2.5,0c-0.8,0-1.6-0.1-1.5-1.2c0-0.7,0.5-1.2,1.3-1.1c2,0,3.9,0,5.9,0
		c0.9,0,1.5,0.4,1.4,1.4c-0.1,0.9-0.8,0.9-1.5,0.9C49.2,27.2,48.1,27.2,47.1,27.2z"/>
        <path class="st7" d="M26.9,4.2c0,1,0,2,0,3.1c0,0.7-0.3,1.3-1.1,1.3c-0.8,0-1.1-0.6-1.1-1.3c0-1.9,0-3.9,0-5.8c0-0.7,0.2-1.3,1-1.4
		c1-0.1,1.3,0.6,1.2,1.4C26.9,2.4,27,3.3,26.9,4.2z"/>
        <path class="st8" d="M17.4,26.3c0-3.2,1.2-5.3,2.9-7.2c0.6-0.6,1.2-1.3,2.1-0.6c1,0.8,0.3,1.4-0.3,2.1c-3.1,3.4-2.9,7-0.9,10.8
		c0.5,0.9,1.5,2.1,0,2.8c-1.3,0.6-1.6-0.9-2.1-1.7C18,30.4,17.2,28.2,17.4,26.3z"/>
        <path class="st9" d="M32,48.8H19.3c-0.6,0-1.1-0.5-1.1-1.1l0,0c0-0.6,0.5-1.1,1.1-1.1H32c0.6,0,1.1,0.5,1.1,1.1l0,0
		C33.1,48.3,32.6,48.8,32,48.8z"/>
        <path class="st9" d="M31,51.6H20.6c-0.6,0-1.1-0.5-1.1-1.1l0,0c0-0.6,0.5-1.1,1.1-1.1H31c0.6,0,1.1,0.5,1.1,1.1l0,0
		C32.1,51.1,31.6,51.6,31,51.6z"/>
        <path class="st9" d="M27.3,54.3H24c-0.6,0-1.1-0.5-1.1-1.1l0,0c0-0.6,0.5-1.1,1.1-1.1h3.2c0.6,0,1.1,0.5,1.1,1.1l0,0
		C28.4,53.8,27.9,54.3,27.3,54.3z"/>
    </g>
</svg>
