<svg
    x="0px"
    y="0px"
    viewBox="0 0 143.2 207.8"
    class="tips-n-tricks-svg">
    <style type="text/css">
        .tips-n-tricks-svg{
            width: 11px;
        }

        .tips-n-tricks-svg .st0{
            fill:none;
            stroke:#acacac;
        }

        .tips-n-tricks-svg .st1{
            fill:none;
            stroke:#acacac;
            stroke-width:10;
            stroke-linecap:round;
        }

        .tips-n-tricks-svg .st2{
            fill:none;
            stroke:#acacac;
            stroke-width:8;
            stroke-linecap:round;
        }
    </style>
<g>
	<path class="st0" d="M70.5,2.8"/>
	<path class="st1" d="M110,157.5c0,0-5.1-21,8.7-38.8c10.5-13.5,19.5-28.7,19.5-47.1C138.2,34.8,108.4,5,71.6,5S5,34.8,5,71.6
		c0,18.4,9.1,33.6,19.5,47.1c13.8,17.8,8.7,38.8,8.7,38.8"/>
	<line class="st2" x1="41.8" y1="166.5" x2="101.8" y2="166.5"/>
	<line class="st2" x1="39.8" y1="178.5" x2="103.8" y2="178.5"/>
	<line class="st2" x1="45.8" y1="190.5" x2="95.8" y2="190.5"/>
	<path d="M87.5,198.5c-1.2,6.2-7.3,9.3-16.4,9.3s-14.4-3.3-16.4-9.3"/>
</g>
</svg>
