<svg
    class="login-username-icon-svg"
    x="0px" y="0px"
    viewBox="0 0 155.5 155.1"
    style="enable-background:new 0 0 155.5 155.1;">
    <style>
        .login-username-icon-svg{
        width: 20px;
        stroke: #CACACA;
        fill: none;
        stroke-width: 10;
        stroke-miterlimit: 10;
        }
    </style>
    <g>
        <circle class="st0" cx="77.7" cy="40.3" r="37.8"/>
        <path class="st0" d="M77.7,152.6h68.5c4,0,7.2-3.5,6.7-7.5c-0.7-6.2-2.3-14.2-3.7-18.2c-8.5-23.7-28.7-30.4-36.3-32.1
		c-1.8-0.4-3.6,0-5.1,0.9c-15.9,10.1-44.2,10.1-60,0c-1.5-1-3.4-1.3-5.1-0.9c-7.6,1.7-27.8,8.3-36.3,32.1c-1.5,4.1-3,12-3.7,18.2
		c-0.5,4,2.7,7.5,6.7,7.5H77.7z"/>
    </g>
</svg>
