<svg
    x="0px"
    y="0px"
    xmlns="http://www.w3.org/2000/svg"
    viewBox="0 0 117.5 141"
    class="purchase-popup-bullet-1-icon">
    <style>
        .purchase-popup-bullet-1-icon {
        .st0{fill:none;stroke:#000000;stroke-width:4;stroke-miterlimit:10;}
        }
    </style>
<path class="st0" d="M107.2,139h-97c-4.5,0-8.3-3.7-8.3-8.3V10.3C2,5.7,5.7,2,10.3,2h97c4.5,0,8.3,3.7,8.3,8.3v120.5
	C115.5,135.3,111.8,139,107.2,139z"/>
<line class="st0" x1="19" y1="26.5" x2="96" y2="26.5"/>
<line class="st0" x1="19" y1="44.7" x2="70.5" y2="44.7"/>
<line class="st0" x1="48.5" y1="62.9" x2="96" y2="62.9"/>
<line class="st0" x1="22.5" y1="81.1" x2="96" y2="81.1"/>
<line class="st0" x1="22.5" y1="99.3" x2="59.2" y2="99.3"/>
<line class="st0" x1="72.2" y1="99.3" x2="94.2" y2="99.3"/>
<line class="st0" x1="22" y1="117.5" x2="95.5" y2="117.5"/>
</svg>
