<svg
    x="0px"
    y="0px"
    viewBox="0 0 208.1 203" class="purchase-popup-bullet-4-icon">

    <style type="text/css">
        .purchase-popup-bullet-4-icon .st0 {
            fill: none;
            stroke: #231F20;
            stroke-width: 6;
            stroke-miterlimit: 10;
        }

        .purchase-popup-bullet-4-icon .st1 {
            fill: none;
            stroke: #231F20;
            stroke-width: 6;
            stroke-linecap: round;
            stroke-linejoin: round;
            stroke-miterlimit: 10;
        }

        .purchase-popup-bullet-4-icon .st2 {
            fill: none;
            stroke: #231F20;
            stroke-width: 4;
            stroke-linecap: round;
            stroke-linejoin: round;
            stroke-miterlimit: 10;
        }
    </style>
    <g>
        <path class="st0" d="M104.2,3h74c0,0-8.8,65.7-14.7,82.9c-5.3,15.6-13,32.6-36.7,43.2c-12.3,5.5-10.3,21.7-10.3,31.5
		c0,11.2,5.4,16.7,13.3,20.4c3.7,1.7,8.3,3.2,14.3,4v15h-40"/>
        <path class="st0" d="M104.2,3h-74c0,0,8.8,65.7,14.7,82.9c5.3,15.6,13,32.6,36.7,43.2c12.3,5.5,10.3,21.7,10.3,31.5
		c0,11.2-5.4,16.7-13.3,20.4c-3.7,1.7-8.3,3.2-14.3,4v15h40"/>
    </g>
    <path class="st1" d="M176.8,20.4c0,0,71.3-1.5-12.2,67.5"/>
    <path class="st1" d="M31.3,20.4c0,0-71.3-1.5,12.2,67.5"/>
    <polygon class="st1" points="102.6,22 113.1,43.4 136.6,46.8 119.6,63.4 123.6,86.9 102.6,75.8 81.5,86.9 85.5,63.4 68.5,46.8
	92,43.4 "/>
    <line class="st2" x1="66.6" y1="193.9" x2="143.6" y2="193.9"/>
</svg>
