<svg
    x="0px"
    y="0px"
    viewBox="0 0 124 141">
<g>
	<path class="st0" d="M77.7,139H16.8c-4.5,0-8.3-3.7-8.3-8.3V10.3c0-4.5,3.7-8.3,8.3-8.3h60.9c4.5,0,8.3,3.7,8.3,8.3v120.5
		C85.9,135.3,82.2,139,77.7,139z"/>
	<line class="st1" x1="2" y1="21.2" x2="17" y2="21.2"/>
	<line class="st1" x1="2" y1="40.9" x2="17" y2="40.9"/>
	<line class="st1" x1="2" y1="60.6" x2="17" y2="60.6"/>
	<line class="st1" x1="2" y1="80.4" x2="17" y2="80.4"/>
	<line class="st1" x1="2" y1="100.1" x2="17" y2="100.1"/>
	<line class="st1" x1="2" y1="119.8" x2="17" y2="119.8"/>
	<g>
		<path class="st2" d="M122,2v116l-7.3,21l-8.7-20.1V24.5V7.2c0,0,1-5.2,6.6-5.2S122,2,122,2z"/>
		<line class="st2" x1="106" y1="21.7" x2="122" y2="21.7"/>
	</g>
</g>
</svg>
