<svg version="1.1" xmlns="http://www.w3.org/2000/svg"  x="0px" y="0px"
	 viewBox="0 0 116.4 115.7"  class= "feedback-svg">

    <style type="text/css">
        .feedback-svg{
            width: 100%;
            height: auto;
        }
    </style>

<g>
	<path d="M116.4,92.8C97.8,76.9,76.5,69.3,51.6,71.4c0-16.4,0-33,0-51C75.3,20.6,97.4,15,116.4,0C116.4,30.9,116.4,61.9,116.4,92.8z
		"/>
	<path d="M0,32.7C5.4,22.9,13.6,19,24.7,20.2c5.7,0.6,11.4,0.1,17.9,0.1c0,16.7,0,33.1,0,50.4C27.8,68.7,11,77.1,0,60
		C0,50.9,0,41.8,0,32.7z"/>
	<path d="M23.3,115.7c-9.8-8.4-6.8-19.7-6.8-30.3c0-1,19.8-3.1,26.1-1.3c3,0.8,1.2,24.5,0.6,31.6C36.6,115.7,30,115.7,23.3,115.7z"
		/>
</g>
</svg>
