<?xml version="1.0" encoding="utf-8"?>
<!-- Generator: Adobe Illustrator 19.0.0, SVG Export Plug-In . SVG Version: 6.00 Build 0)  -->
<svg version="1.1" id="Layer_1" xmlns="http://www.w3.org/2000/svg" xmlns:xlink="http://www.w3.org/1999/xlink" x="0px" y="0px"
	 viewBox="0 0 28.6 27.2" style="enable-background:new 0 0 28.6 27.2;" xml:space="preserve">
<path id="XMLID_14_" class="st0" d="M15.1,0.5l3.7,7.6c0.1,0.3,0.4,0.4,0.6,0.5l8.4,1.2c0.7,0.1,1,1,0.5,1.5l-6.1,5.9
	c-0.2,0.2-0.3,0.5-0.2,0.8l1.4,8.3c0.1,0.7-0.6,1.2-1.3,0.9l-7.5-3.9c-0.3-0.1-0.6-0.1-0.8,0l-7.5,3.9c-0.6,0.3-1.4-0.2-1.3-0.9
	l1.4-8.3c0-0.3,0-0.6-0.2-0.8l-6.1-5.9C-0.3,10.7,0,9.9,0.7,9.8l8.4-1.2c0.3,0,0.5-0.2,0.6-0.5l3.7-7.6C13.8-0.2,14.7-0.2,15.1,0.5z
	"/>
</svg>
