<?xml version="1.0" encoding="utf-8"?>
<!-- Generator: Adobe Illustrator 19.0.0, SVG Export Plug-In . SVG Version: 6.00 Build 0)  -->
<svg version="1.1" id="Layer_1" xmlns="http://www.w3.org/2000/svg" xmlns:xlink="http://www.w3.org/1999/xlink" x="0px" y="0px"
	 viewBox="0 0 134 126" style="enable-background:new 0 0 134 126;" xml:space="preserve">
<g id="CxUJay.tif">
	<g id="XMLID_14_">
		<path id="XMLID_96_" d="M87.8,0c9.7,3.5,13.3,9.9,11.2,20.3c-0.2,0.8-0.8,1.5-1.4,2.2c-2.2,2.5-4.4,5-6.6,7.5
			c-0.4-0.3-0.9-0.5-1.3-0.8c0-4.8,0-9.7,0-14.5c0-4.4-0.9-5.3-5.3-5.3c-23.5,0-46.9,0-70.4,0c-4.1,0-4.9,0.9-4.9,4.9
			c0,32.4,0,64.8,0,97.2c0,4,0.9,4.9,4.9,4.9c23.6,0,47.1,0,70.7,0c3.9,0,4.9-1,4.9-5c0-10.2,0.1-20.3,0-30.5c0-2.5,0.7-4.4,2.6-6.1
			c2-1.9,3.7-4.2,5.5-6.3c0.4,0.2,0.9,0.5,1.3,0.7c0,1,0,2,0,3.1c0,12.3,0,24.6,0,36.9c0,10.7-2.1,13.6-12,16.8
			c-25.2,0-50.5,0-75.7,0c-5.5-1.4-9.6-4.4-11.4-10.1C0,80.6,0,45.4,0,10.1C1.9,4.5,5.7,1.2,11.4,0C36.9,0,62.3,0,87.8,0z"/>
		<path id="XMLID_95_" d="M134,22.1C116,39.5,97.9,57,79.9,74.4c-1,0.9-1.9,1.8-2.8,2.6c-3.8-3.8-7.4-7.4-11.2-11.2
			c19-18.3,38-36.6,58-55.9c3.5,3.9,6.8,7.7,10.2,11.5C134,21.7,134,21.9,134,22.1z"/>
		<path id="XMLID_90_" d="M16.8,18.2c21.8,0,43.4,0,65.6,0c0,6.1,0.1,12.3-0.1,18.5c0,1.1-1.8,2.1-2.6,3.3c-4.6,6.2-10.6,8-18.2,7.6
			c-13.6-0.6-27.2-0.2-40.9-0.2c-1.2,0-2.4,0-3.7,0C16.8,37.4,16.8,27.9,16.8,18.2z M73,27.6c-15.9,0-31.4,0-46.9,0
			c0,3.6,0,6.9,0,10.3c15.8,0,31.3,0,46.9,0C73,34.3,73,31,73,27.6z"/>
		<path id="XMLID_89_" d="M16.9,107.9c0-2.9,0-5.7,0-8.6c21.8,0,43.5,0,65.3,0c0,2.8,0,5.6,0,8.6C60.5,107.9,38.9,107.9,16.9,107.9z
			"/>
		<path id="XMLID_88_" d="M16.9,67.5c0-3,0-5.9,0-8.9c10.8,0,21.5,0,32.4,0c0,2.9,0,5.8,0,8.9C38.5,67.5,27.8,67.5,16.9,67.5z"/>
		<path id="XMLID_87_" d="M17,79.8c10.9,0,21.5,0,32.4,0c0,2.9,0,5.6,0,8.7c-10.7,0-21.4,0-32.4,0C17,85.8,17,82.9,17,79.8z"/>
		<path id="XMLID_86_" d="M72.9,81.1c-5.2,1.8-10.5,3.6-16.6,5.6c2.1-6,4-11.4,5.7-16.3C65.7,74,69.3,77.4,72.9,81.1z"/>
	</g>
</g>
</svg>
